<svg xmlns="http://www.w3.org/2000/svg" version="1.1" xmlns:xlink="http://www.w3.org/1999/xlink" xmlns:svgjs="http://svgjs.com/svgjs" width="1440" height="560" preserveAspectRatio="none" viewBox="0 0 1440 560"><g mask="url(&quot;#SvgjsMask1028&quot;)" fill="none"><path d="M782.67 619.79C875.18 604.2 829.97 388.26 1068.87 377.07 1307.78 365.88 1491.34 199.95 1641.28 197.87" stroke="rgba(51,121,194,0.58)" stroke-width="2"></path><path d="M270.14 629.16C402.4 616.27 484.83 337.47 713.37 335.76 941.91 334.05 934.98 405.76 1156.6 405.76 1378.21 405.76 1487.65 335.98 1599.83 335.76" stroke="rgba(51,121,194,0.58)" stroke-width="2"></path><path d="M493.6 581.79C629.27 549.79 674.34 193.07 887.13 186.76 1099.91 180.45 1083.89 256.76 1280.65 256.76 1477.42 256.76 1574.25 187.03 1674.18 186.76" stroke="rgba(51,121,194,0.58)" stroke-width="2"></path><path d="M203.61 579.39C387.79 563.22 508.99 185.22 828.45 183.74 1147.91 182.26 1293.8 311.87 1453.29 312.54" stroke="rgba(51,121,194,0.58)" stroke-width="2"></path><path d="M564.68 666.76C680.95 641.97 625.69 349.48 908.99 338.73 1192.28 327.98 1421.93 199.44 1597.6 198.73" stroke="rgba(51,121,194,0.58)" stroke-width="2"></path></g><defs><mask id="SvgjsMask1028"><rect width="1440" height="560" fill="#ffffff"></rect></mask></defs></svg>