<?xml version="1.0" encoding="utf-8"?><svg xmlns="http://www.w3.org/2000/svg" xmlns:xlink="http://www.w3.org/1999/xlink" width="1920" height="927" preserveAspectRatio="xMidYMid" viewBox="0 0 1920 927" style="z-index:1;display:block;animation-play-state:paused" ><g transform="translate(960,463.5) scale(1,1) translate(-960,-463.5)" style="animation-play-state:paused" ><linearGradient id="lg-0.03735433505156749" x1="0" x2="1" y1="0" y2="0" style="animation-play-state:paused" ><stop stop-color="#fdff1e" offset="0" style="animation-play-state:paused" ></stop>

  
<stop stop-color="#00fff7" offset="1" style="animation-play-state:paused" ></stop></linearGradient>
<path d="M 0 0 L 0 924.14 Q 192 783.963 384 745.034 T 768 746.157 T 1152 579.246 T 1536 488.202 T 1920 479.209 L 1920 0 Z" fill="url(#lg-0.03735433505156749)" opacity="0.4" style="opacity:0.4;animation-play-state:paused" ></path>
<path d="M 0 0 L 0 816.911 Q 192 784.788 384 741.929 T 768 666.044 T 1152 604.258 T 1536 471.721 T 1920 449.437 L 1920 0 Z" fill="url(#lg-0.03735433505156749)" opacity="0.4" style="opacity:0.4;animation-play-state:paused" ></path>
<path d="M 0 0 L 0 830.428 Q 192 739.011 384 719.588 T 768 727.059 T 1152 539.943 T 1536 394.3 T 1920 294.368 L 1920 0 Z" fill="url(#lg-0.03735433505156749)" opacity="0.4" style="opacity:0.4;animation-play-state:paused" ></path>
<path d="M 0 0 L 0 833.856 Q 192 790.827 384 755.424 T 768 699.98 T 1152 534.78 T 1536 554.591 T 1920 380.164 L 1920 0 Z" fill="url(#lg-0.03735433505156749)" opacity="0.4" style="opacity:0.4;animation-play-state:paused" ></path>
<path d="M 0 0 L 0 882.521 Q 192 733.1 384 707.262 T 768 625.279 T 1152 578.491 T 1536 504.731 T 1920 442.276 L 1920 0 Z" fill="url(#lg-0.03735433505156749)" opacity="0.4" style="opacity:0.4;animation-play-state:paused" ></path></g></svg>